<svg fill="none" height="38" viewBox="0 0 120 38" width="120" xmlns="http://www.w3.org/2000/svg">
<path d="M36.9978 19.019C36.9978 18.9928 36.9978 18.9667 36.9978 18.9405C36.9716 13.9975 32.9335 9.99609 27.9778 9.99609C23.0351 9.99609 19.0233 13.9583 18.9578 18.8621C18.8922 23.8835 23.0745 27.9896 28.1089 27.9896H33.3924C34.3888 27.9896 35.2016 27.1788 35.2016 26.185C35.2016 25.1912 34.3888 24.3804 33.3924 24.3804H27.9778C25.6179 24.3804 23.612 22.8766 22.8778 20.7843H35.241C36.2111 20.7974 36.9847 19.9997 36.9978 19.019ZM27.9647 13.5922C30.3246 13.5922 32.3305 15.096 33.0646 17.1882H22.8516C23.612 15.096 25.6179 13.5922 27.9647 13.5922Z" fill="white"></path>
<path d="M88.4294 19.019C88.4294 18.9928 88.4294 18.9667 88.4294 18.9405C88.4032 14.0237 84.3389 9.99609 79.4094 9.99609C74.4668 9.99609 70.455 13.9583 70.3894 18.8621C70.3239 23.8966 74.4799 27.9896 79.5405 27.9896H84.824C85.8204 27.9896 86.6333 27.1788 86.6333 26.185C86.6333 25.1912 85.8204 24.3804 84.824 24.3804H79.4094C77.0495 24.3804 75.0436 22.8766 74.3095 20.7843H86.6595C87.6428 20.7974 88.4163 19.9997 88.4294 19.019ZM79.3963 13.5922C81.7562 13.5922 83.7621 15.096 84.4963 17.1882H74.2832C75.0436 15.096 77.0495 13.5922 79.3963 13.5922Z" fill="white"></path>
<path d="M114.586 17.2013H107.414C106.444 17.2013 105.605 16.456 105.566 15.4883C105.513 14.4552 106.339 13.6052 107.362 13.6052H116.382C117.378 13.6052 118.191 12.7945 118.191 11.8007C118.191 10.8068 117.378 9.99609 116.382 9.99609H107.454C104.491 9.99609 102 12.3368 101.947 15.3052C101.895 18.3259 104.333 20.7974 107.362 20.7974H114.533C115.503 20.7974 116.342 21.5428 116.382 22.5104C116.434 23.5435 115.608 24.3935 114.586 24.3935H104.661C103.665 24.3935 102.852 25.2042 102.852 26.1981C102.852 27.1919 103.665 28.0026 104.661 28.0026H114.494C117.457 28.0026 119.948 25.6619 120 22.6935C120.053 19.6597 117.614 17.2013 114.586 17.2013Z" fill="white"></path>
<path d="M64.9621 24.3938C62.9693 24.3938 61.3568 22.7854 61.3568 20.7977V13.5925H67.676C68.6724 13.5925 69.4852 12.7817 69.4852 11.7879C69.4852 10.7941 68.6724 9.98334 67.676 9.98334H61.3568V7.30262C61.3568 6.3088 60.5439 5.49805 59.5475 5.49805C58.5511 5.49805 57.7383 6.3088 57.7383 7.30262V20.7977C57.7383 24.773 60.9766 28.003 64.9621 28.003H68.5675C69.5639 28.003 70.3767 27.1922 70.3767 26.1984C70.3767 25.2045 69.5639 24.3938 68.5675 24.3938H64.9621Z" fill="white"></path>
<path d="M17.1485 17.2017C17.1485 13.2264 13.9102 9.99648 9.92461 9.99648C7.01409 9.99648 5.53261 10.5326 3.60538 11.9187V11.788C3.60538 10.7942 2.79253 9.9834 1.79613 9.9834C0.812848 9.99648 0 10.8072 0 11.8011V26.1984C0 27.1923 0.812848 28.003 1.80924 28.003C2.80564 28.003 3.61849 27.1923 3.61849 26.1984V18.9932C3.61849 15.6717 6.04392 13.5926 9.0331 13.5926C12.822 13.5926 13.5431 15.894 13.5431 17.1886V26.1854C13.5431 27.1792 14.3559 27.9899 15.3523 27.9899C16.3487 27.9899 17.1616 27.1792 17.1616 26.1854V17.2017H17.1485Z" fill="white"></path>
<path d="M99.246 9.99609C97.2139 9.99609 95.3391 10.663 93.8314 11.8007C93.8314 10.8068 93.0185 9.99609 92.0221 9.99609C91.0257 9.99609 90.2129 10.8068 90.2129 11.8007V26.1981C90.2129 27.1919 91.0257 28.0026 92.0221 28.0026C93.0185 28.0026 93.8314 27.1919 93.8314 26.1981V18.9928C93.8314 16.0114 96.2568 13.5922 99.246 13.5922C100.242 13.5922 101.055 12.7814 101.055 11.7876C101.055 10.8068 100.242 9.99609 99.246 9.99609Z" fill="white"></path>
<path d="M64.7653 35.8098C49.0328 19.3201 48.7181 19.8955 56.2173 10.7418C56.4533 10.4542 56.4533 10.0357 56.1911 9.77418C56.178 9.7611 56.178 9.7611 56.1649 9.74802C55.9027 9.48649 55.4831 9.48649 55.1947 9.72187C46.0043 17.1886 46.5811 16.8748 30.0489 1.18283C29.7735 0.921293 29.3409 0.921293 29.0656 1.1959C28.7903 1.47051 28.7903 1.90204 29.0525 2.17665C44.8375 18.7186 45.1128 18.0909 36.3157 28.5653C36.0797 28.853 36.0666 29.2714 36.3419 29.533L36.3681 29.5591C36.6303 29.8207 37.0498 29.8207 37.3383 29.5853C47.8266 20.8109 47.2104 21.0855 63.7821 36.8167C64.0574 37.0782 64.49 37.0782 64.7653 36.8036C65.0275 36.5159 65.0275 36.0844 64.7653 35.8098Z" fill="#FF9D00"></path>
</svg>